<svg width="20" height="20" viewBox="0 0 20 20" fill="none" xmlns="http://www.w3.org/2000/svg">
<path d="M1.72006 10.2901C1.65061 10.103 1.65061 9.89715 1.72006 9.71006C2.39647 8.06993 3.54465 6.66759 5.01903 5.6808C6.49341 4.69402 8.22759 4.16724 10.0017 4.16724C11.7759 4.16724 13.51 4.69402 14.9844 5.6808C16.4588 6.66759 17.607 8.06993 18.2834 9.71006C18.3528 9.89715 18.3528 10.103 18.2834 10.2901C17.607 11.9302 16.4588 13.3325 14.9844 14.3193C13.51 15.3061 11.7759 15.8329 10.0017 15.8329C8.22759 15.8329 6.49341 15.3061 5.01903 14.3193C3.54465 13.3325 2.39647 11.9302 1.72006 10.2901Z" stroke="white" stroke-width="1.5" stroke-linecap="round" stroke-linejoin="round"/>
<path d="M10 12.5C11.3807 12.5 12.5 11.3807 12.5 10C12.5 8.61929 11.3807 7.5 10 7.5C8.61929 7.5 7.5 8.61929 7.5 10C7.5 11.3807 8.61929 12.5 10 12.5Z" stroke="white" stroke-width="1.5" stroke-linecap="round" stroke-linejoin="round"/>
</svg>
