<svg width="24" height="25" viewBox="0 0 24 25" fill="none" xmlns="http://www.w3.org/2000/svg">
<path d="M2.06251 12.8481C1.97916 12.6236 1.97916 12.3766 2.06251 12.1521C2.87421 10.184 4.25202 8.50116 6.02128 7.31701C7.79053 6.13287 9.87155 5.50073 12.0005 5.50073C14.1295 5.50073 16.2105 6.13287 17.9797 7.31701C19.749 8.50116 21.1268 10.184 21.9385 12.1521C22.0218 12.3766 22.0218 12.6236 21.9385 12.8481C21.1268 14.8163 19.749 16.4991 17.9797 17.6832C16.2105 18.8674 14.1295 19.4995 12.0005 19.4995C9.87155 19.4995 7.79053 18.8674 6.02128 17.6832C4.25202 16.4991 2.87421 14.8163 2.06251 12.8481Z" stroke="white" stroke-width="2" stroke-linecap="round" stroke-linejoin="round"/>
<path d="M12 15.5C13.6569 15.5 15 14.1569 15 12.5C15 10.8431 13.6569 9.5 12 9.5C10.3431 9.5 9 10.8431 9 12.5C9 14.1569 10.3431 15.5 12 15.5Z" stroke="white" stroke-width="2" stroke-linecap="round" stroke-linejoin="round"/>
</svg>
