<svg width="40" height="40" viewBox="0 0 40 40" fill="none" xmlns="http://www.w3.org/2000/svg">
<path d="M0 14.4361C0 6.46328 6.43857 0 14.3809 0H25.4663C33.4086 0 39.8472 6.46328 39.8472 14.4361V25.5639C39.8472 33.5367 33.4086 40 25.4663 40H14.3809C6.43857 40 0 33.5367 0 25.5639V14.4361Z" fill="url(#paint0_linear_382_14879)"/>
<mask id="mask0_382_14879" style="mask-type:alpha" maskUnits="userSpaceOnUse" x="0" y="0" width="40" height="40">
<rect width="39.8472" height="40" rx="19.9236" fill="black"/>
</mask>
<g mask="url(#mask0_382_14879)">
<path d="M28.8228 10.7014C29.6173 9.90669 30.905 9.90669 31.6995 10.7014C32.4939 11.4962 32.4939 12.7844 31.6995 13.5792L15.425 29.86C14.6305 30.6548 13.3428 30.6548 12.5483 29.86L5.84941 23.1585L-4.91814 33.9302C-5.71259 34.725 -7.00034 34.725 -7.79479 33.9302C-8.58924 33.1355 -8.58924 31.8472 -7.79479 31.0525L4.41109 18.8418L4.56605 18.7027C5.36507 18.0508 6.54294 18.0968 7.28773 18.8418L13.9867 25.5434L28.8228 10.7014Z" fill="white"/>
<path d="M28.2268 26.386V14.1754H16.021C14.8975 14.1754 13.9867 13.2643 13.9867 12.1403C13.9867 11.0164 14.8975 10.1052 16.021 10.1052H30.2612C31.3847 10.1052 32.2955 11.0164 32.2955 12.1403V26.386C32.2955 27.51 31.3847 28.4211 30.2612 28.4211C29.1376 28.4211 28.2268 27.51 28.2268 26.386Z" fill="white"/>
</g>
<defs>
<linearGradient id="paint0_linear_382_14879" x1="32.447" y1="-4.19048" x2="4.02102" y2="39.9011" gradientUnits="userSpaceOnUse">
<stop offset="0.302885" stop-color="#6F3FFF"/>
<stop offset="0.951923" stop-color="#375FFF"/>
</linearGradient>
</defs>
</svg>
