<svg width="90" height="76" viewBox="0 0 90 76" fill="none" xmlns="http://www.w3.org/2000/svg">
<path d="M25.2861 57.8569C26.1146 57.8569 26.7861 58.5285 26.7861 59.3569C26.7861 60.1854 26.1146 60.8569 25.2861 60.8569H2.28613C1.45771 60.8569 0.786133 60.1854 0.786133 59.3569C0.786133 58.5285 1.45771 57.8569 2.28613 57.8569H25.2861Z" fill="white"/>
<path d="M87.7143 57.8569C88.5427 57.8569 89.2143 58.5285 89.2143 59.3569C89.2143 60.1854 88.5427 60.8569 87.7143 60.8569H45.0004C44.172 60.8569 43.5004 60.1854 43.5004 59.3569C43.5004 58.5285 44.172 57.8569 45.0004 57.8569H87.7143Z" fill="white"/>
<path d="M33.6433 49.4999V33.0712C33.6433 32.2428 34.3148 31.5712 35.1433 31.5712C35.9717 31.5712 36.6433 32.2428 36.6433 33.0712V49.4999C36.6432 50.3283 35.9717 50.9999 35.1433 50.9999C34.3149 50.9999 33.6434 50.3283 33.6433 49.4999Z" fill="white"/>
<path d="M43.5004 59.3569C43.5004 54.7415 39.7587 51.0001 35.1433 50.9999C30.5277 50.9999 26.7861 54.7414 26.7861 59.3569C26.7863 63.9722 30.5281 67.7137 35.1436 67.7137C39.7589 67.7135 43.5003 63.9721 43.5004 59.3569ZM46.5 59.3572C46.4998 65.6292 41.4157 70.7135 35.1436 70.7137C28.8712 70.7137 23.7863 65.6293 23.7861 59.3572C23.7861 53.0848 28.8712 47.9998 35.1436 47.9998C41.4158 47.9999 46.5 53.0849 46.5 59.3572Z" fill="white"/>
<path d="M71.8684 43.5107C72.4542 42.9249 73.4038 42.9249 73.9895 43.5107L88.7757 58.2958C89.3615 58.8816 89.3615 59.8321 88.7757 60.4179L73.9895 75.2031C73.4038 75.7889 72.4542 75.7889 71.8684 75.2031C71.2827 74.6173 71.2827 73.6677 71.8684 73.082L85.5921 59.3564L71.8684 45.6318C71.2827 45.046 71.2827 44.0965 71.8684 43.5107Z" fill="white"/>
<path d="M34.3845 0.562994C34.8433 0.293928 35.4103 0.287994 35.8747 0.547369L63.8034 16.1548C64.2778 16.4199 64.572 16.9209 64.572 17.4644C64.5719 18.0077 64.2777 18.5089 63.8034 18.7739L35.8747 34.3804C35.4102 34.6399 34.8434 34.634 34.3845 34.3648C33.9255 34.0955 33.6433 33.6034 33.6433 33.0712V1.85694C33.6433 1.32479 33.9255 0.832289 34.3845 0.562994ZM36.6433 30.5151L59.9968 17.4644L36.6433 4.4126V30.5151Z" fill="white"/>
</svg>
