<svg width="171" height="45" viewBox="0 0 171 45" fill="none" xmlns="http://www.w3.org/2000/svg">
<path d="M148.5 42V45H22.5V42H148.5ZM168 22.5C168 11.7304 159.27 3 148.5 3H22.5C11.7304 3 3 11.7304 3 22.5C3 33.2696 11.7304 42 22.5 42V45L21.9189 44.9922C9.76109 44.684 0 34.7321 0 22.5C0 10.0736 10.0736 4.34874e-07 22.5 0H148.5C160.926 0 171 10.0736 171 22.5C171 34.7321 161.239 44.684 149.081 44.9922L148.5 45V42C159.27 42 168 33.2696 168 22.5Z" fill="white"/>
<path d="M151.497 11.1583C152.035 10.6213 152.904 10.569 153.505 11.0606C154.146 11.5852 154.24 12.5308 153.716 13.172L138.238 32.0899C137.037 33.5574 134.86 33.7383 133.433 32.4893L127.457 27.2608L127.347 27.1544C126.828 26.5986 126.804 25.7293 127.315 25.1446C127.861 24.5213 128.808 24.4578 129.432 25.003L135.408 30.2315C135.559 30.3633 135.789 30.3447 135.916 30.1895L151.394 11.2716L151.497 11.1583Z" fill="white"/>
</svg>
